<?xml version="1.0" encoding="UTF-8" standalone="no"?>
<svg
   width="172.09811"
   height="168.21747"
   version="1.1"
   id="svg85"
   sodipodi:docname="right-hand-rule.svg"
   inkscape:version="1.1 (ce6663b3b7, 2021-05-25)"
   xmlns:inkscape="http://www.inkscape.org/namespaces/inkscape"
   xmlns:sodipodi="http://sodipodi.sourceforge.net/DTD/sodipodi-0.dtd"
   xmlns="http://www.w3.org/2000/svg"
   xmlns:svg="http://www.w3.org/2000/svg">
  <sodipodi:namedview
     id="namedview87"
     pagecolor="#ffffff"
     bordercolor="#666666"
     borderopacity="1.0"
     inkscape:pageshadow="2"
     inkscape:pageopacity="0.0"
     inkscape:pagecheckerboard="0"
     showgrid="false"
     fit-margin-top="0"
     fit-margin-left="0"
     fit-margin-right="0"
     fit-margin-bottom="0"
     inkscape:zoom="1.7914286"
     inkscape:cx="169.41786"
     inkscape:cy="-3.0701754"
     inkscape:window-width="1528"
     inkscape:window-height="836"
     inkscape:window-x="72"
     inkscape:window-y="27"
     inkscape:window-maximized="1"
     inkscape:current-layer="svg85" />
  <defs
     id="defs75">
    <marker
       orient="auto"
       refY="0"
       refX="0"
       id="a"
       overflow="visible">
      <path
         d="M -0.5,0 -1.5,-1 2,0 -1.5,1 Z"
         id="path72" />
    </marker>
  </defs>
  <path
     d="m 86.602534,134.12215 -5.459297,-2.85486 c -0.601023,-0.50085 -1.302217,-0.90153 -2.003411,-1.25213 -0.601023,-0.20034 -2.354008,-2.25384 -5.20887,-6.21058 a 18.030703,18.030703 0 0 1 -3.706311,-12.62149 c 0.250427,-1.50256 0.601024,-3.00511 0.801365,-3.20546 0.200341,-0.20034 -0.05008,-1.55264 -0.601024,-3.00511 -1.752985,-4.50768 -1.502558,-7.062027 1.001706,-12.170727 1.252132,-2.50426 2.203753,-5.25895 2.153667,-6.06032 0,-1.45247 0,-2.85486 0.150256,-4.30733 0.300512,-3.7564 2.354009,-6.06032 6.91177,-7.76322 l 3.155373,-1.20205 0.150255,-2.50426 c 0.150256,-1.80307 0.75128,-3.50597 1.7029,-5.05862 1.352303,-2.30392 1.853156,-2.7046 4.607846,-3.85656 4.808184,-2.00341 17.730191,2.00341 28.298181,5.45929 1.10188,0.3506 9.56629,4.50768 12.02047,5.20887 2.65452,0.7012 4.20717,0.10017 5.20887,-2.00341 0.55094,-1.20205 1.85316,-6.51109 3.90665,-16.27772 1.40239,-6.81159 2.70461,-8.51449 10.66817,-14.17413 4.7581,-3.4058 6.16049,-4.00682 8.96526,-3.85657 6.76152,0.25043 9.51621,7.61296 4.70802,12.52132 a 15.82695,15.82695 0 0 0 -3.75639,9.71655 c -0.0501,1.50256 -0.30052,3.70631 -0.60103,4.95844 -0.50085,2.60444 -0.3506,5.75981 0.80137,13.57311 0.85145,4.65793 0.95162,9.41604 0.25042,14.07397 -0.75128,3.90665 0.15026,15.476347 1.7029,22.939057 0.55094,2.60443 1.75299,5.85998 4.05691,10.81842 2.80478,5.65964 4.70802,11.77004 5.60955,18.0307 l -3.75639,0.7012 -1.30222,-5.4593 a 46.078463,46.078463 0 0 0 -4.10699,-11.26919 c -1.50256,-3.00511 -2.70461,-6.06032 -3.80649,-9.21569 A 88.400529,88.400529 0 0 1 156.8221,89.546253 c 0.50085,-4.00682 0.20034,-8.21399 -1.10188,-16.42797 a 29.550318,29.550318 0 0 1 0,-10.71826 c 0.25043,-1.60272 0.50086,-4.0569 0.50086,-5.45929 0,-2.35401 1.85315,-6.41092 5.30904,-11.71996 1.3523,-2.0535 0.60102,-4.25725 -1.50256,-4.65793 -2.25384,-0.45077 -2.65452,-0.25043 -7.01194,2.75469 -7.66305,5.40921 -8.11382,6.16049 -10.2174,15.92712 -2.40409,11.36936 -3.0552,13.47294 -4.60785,15.17584 -2.15366,2.4041 -5.50938,3.25555 -8.86509,2.25384 a 145.24733,145.24733 0 0 1 -12.32098,-5.30904 c -6.36083,-3.00512 -20.885567,-7.11211 -23.439912,-6.36083 -2.404093,0.70119 -4.507675,2.40409 -5.108699,4.10699 -1.602729,5.20887 0.500853,9.46612 4.006823,13.22252 3.305631,2.75469 13.723368,8.31416 16.578228,8.81501 2.80477,0.50085 3.4058,0.40068 4.50767,-0.7012 0.65111,-0.6511 0.65111,-1.30221 0,-3.35571 -0.60102,-2.20375 -1.40238,-3.30563 -5.00852,-7.1622 -4.70802,-5.00852 -6.96186,-8.91518 -5.00853,-8.71484 h 2.15366 c 0.60103,0 1.25214,0.30052 1.40239,0.7012 0.15026,0.45077 0.80137,1.40239 1.50256,2.10358 l 6.26066,6.66134 c 2.10358,2.75469 3.70631,7.76322 3.10529,10.01706 -0.25043,0.95162 -0.70119,1.80307 -1.3523,2.55435 -0.65111,0.65111 -0.80137,1.20205 -0.40069,1.60273 0.30052,0.3506 0.95162,1.65281 1.45248,2.85486 0.70119,1.80307 0.80136,2.804777 0.35059,5.258957 -0.70119,4.15707 -1.60272,5.10869 -5.50938,5.91006 l -3.00511,0.65111 1.0017,2.90494 c 1.80307,5.20887 -0.20034,8.71484 -5.85998,10.36766 -2.60443,0.80136 -3.20545,1.10187 -3.00511,1.7029 0.35059,1.30222 -0.55094,4.90836 -1.702897,6.66134 -0.7012,1.00171 -1.55265,1.85316 -2.60444,2.45418 l -1.50256,0.75128 4.457587,4.90836 c 4.60785,4.10699 7.86339,4.90836 13.87363,7.01194 9.66646,3.35571 14.6249,1.50256 17.32951,5.00853 1.20204,1.50255 6.1104,4.50767 6.01023,4.65793 l -1.00171,1.15196 c -0.25042,0.30051 -0.20034,0.15025 -1.20204,1.50256 0,0 -4.60785,-2.30393 -7.01194,-5.05862 -1.10188,-1.30221 -6.8116,-0.85145 -15.57653,-3.35571 -7.71313,-2.15367 -10.41774,-4.35742 -15.025577,-7.76322 -3.856568,-2.90495 -5.00853,-5.05861 -7.612965,-6.51109 l -3.455884,-1.80307 m 10.467829,-6.01023 c 1.50255,-3.50597 -0.20035,-5.70972 -6.010239,-7.76322 -4.758102,-1.60273 -9.215693,-3.90665 -13.272601,-6.76151 -2.053496,-1.40239 -3.355714,-2.00342 -3.556055,-1.65282 -0.751279,1.30222 0.85145,6.31075 3.005117,9.36595 3.105288,4.60785 4.407505,5.75981 8.664755,7.71313 5.359125,2.50427 9.816713,2.15367 11.169023,-0.90153 z m 9.666457,-11.11893 c 0.85145,-1.60273 0.10017,-4.25725 -2.00342,-6.51109 -1.25213,-1.40239 -2.354,-2.00341 -5.158777,-2.60444 -2.00341,-0.45076 -3.7564,-1.0017 -4.00682,-1.20204 -0.25043,-0.20034 -2.303926,-1.00171 -4.557764,-1.7029 A 28.498527,28.498527 0 0 1 77.987864,97.109133 l -2.904946,-3.10529 -0.951621,2.40409 c -0.851449,2.20376 -0.851449,2.75469 0,5.709727 0.701194,2.40409 2.203753,4.25724 3.50597,6.36083 1.903241,1.90324 9.916887,6.41091 14.02388,7.8133 2.454179,0.80137 5.509386,1.95333 6.811596,2.50427 2.003407,0.80136 2.754687,0.85145 4.958447,0.20034 2.00341,-0.55094 2.75469,-1.05179 3.30563,-2.00341 z m 7.16219,-13.67329 c 0.65111,-2.00341 0.25043,-4.307327 -1.10188,-5.910057 -0.85145,-1.10188 -2.15366,-1.7029 -4.95844,-2.40409 -2.50426,-0.65111 -6.01023,-2.25384 -10.567987,-4.80819 -6.911773,-3.90665 -9.81672,-6.36083 -11.469534,-9.61638 -1.302217,-2.50426 -2.253838,-2.90494 -4.507676,-1.85315 -3.656226,1.75298 -4.207164,3.25554 -3.405799,9.36595 0.400682,3.30562 0.400682,3.30562 3.405799,6.51108 3.4058,3.60614 4.758102,4.35742 13.17243,7.312447 6.511087,2.25384 9.466117,3.00512 13.723367,3.20546 3.65622,0.20034 5.15878,-0.25042 5.70972,-1.80307 z"
     id="path77"
     style="stroke-width:0.500853" />
  <g
     fill="none"
     stroke="#000000"
     stroke-width="9"
     stroke-linecap="round"
     marker-end="url(#a)"
     id="g83"
     transform="matrix(0.50085285,0,0,0.50085285,-2.7997008,-5.1650271)">
    <path
       d="M 85,338 A 68,28 23 1 0 44,321"
       id="path79" />
    <path
       d="M 73,304 185,27"
       id="path81" />
  </g>
</svg>
